<?xml version="1.0" encoding="UTF-8" standalone="no"?>
<svg
   xmlns:dc="http://purl.org/dc/elements/1.1/"
   xmlns:cc="http://creativecommons.org/ns#"
   xmlns:rdf="http://www.w3.org/1999/02/22-rdf-syntax-ns#"
   xmlns:svg="http://www.w3.org/2000/svg"
   xmlns="http://www.w3.org/2000/svg"
   xmlns:sodipodi="http://sodipodi.sourceforge.net/DTD/sodipodi-0.dtd"
   xmlns:inkscape="http://www.inkscape.org/namespaces/inkscape"
   width="300"
   height="300"
   viewBox="0 0 79.374998 79.375002"
   version="1.1"
   id="svg8"
   sodipodi:docname="300d-light-intensity-drizzle.svg"
   inkscape:version="0.92.3 (2405546, 2018-03-11)">
  <sodipodi:namedview
     pagecolor="#ffffff"
     bordercolor="#666666"
     borderopacity="1"
     objecttolerance="10"
     gridtolerance="10"
     guidetolerance="10"
     inkscape:pageopacity="0"
     inkscape:pageshadow="2"
     inkscape:window-width="1632"
     inkscape:window-height="980"
     id="namedview19"
     showgrid="false"
     inkscape:zoom="0.55625733"
     inkscape:cx="72.087832"
     inkscape:cy="196.58297"
     inkscape:window-x="48"
     inkscape:window-y="0"
     inkscape:window-maximized="1"
     inkscape:current-layer="svg8" />
  <defs
     id="defs2" />
  <metadata
     id="metadata5">
    <rdf:RDF>
      <cc:Work
         rdf:about="">
        <dc:format>image/svg+xml</dc:format>
        <dc:type
           rdf:resource="http://purl.org/dc/dcmitype/StillImage" />
        <dc:title></dc:title>
      </cc:Work>
    </rdf:RDF>
  </metadata>
  <g
     style="fill:#cccccc"
     transform="matrix(0.91566447,0,0,0.91566447,103.35113,-195.12415)"
     id="g111">
    <rect
       style="fill:#cccccc;stroke-width:0.19979848"
       id="rect12-6-7"
       width="69.358627"
       height="25.688381"
       x="-104.22694"
       y="244.71248"
       ry="12.844191" />
    <ellipse
       style="fill:#cccccc;stroke-width:0.19979848"
       id="path14-7-5"
       cx="-75.03495"
       cy="243.63496"
       rx="18.838146"
       ry="17.553726" />
  </g>
  <rect
     transform="matrix(-0.37076927,0.92872501,-0.98091033,-0.1944606,0,0)"
     ry="1.0146294"
     y="-36.902122"
     x="51.219124"
     height="2.364975"
     width="4.4340301"
     id="rect400-3-0-2-1-36"
     style="fill:#cccccc;stroke-width:0.22698261" />
  <rect
     transform="matrix(-0.37076927,0.92872501,-0.98091033,-0.1944606,0,0)"
     ry="1.0146294"
     y="-42.267212"
     x="56.848824"
     height="2.364975"
     width="4.4340301"
     id="rect400-3-0-2-1-6"
     style="fill:#cccccc;stroke-width:0.22698261" />
  <rect
     transform="matrix(-0.37076927,0.92872501,-0.98091033,-0.1944606,0,0)"
     ry="1.0146294"
     y="-46.781986"
     x="51.557732"
     height="2.364975"
     width="4.4340301"
     id="rect400-3-0-2-1-7"
     style="fill:#cccccc;stroke-width:0.22698261" />
  <rect
     transform="matrix(-0.37076927,0.92872501,-0.98091033,-0.1944606,0,0)"
     ry="1.0146294"
     y="-51.350937"
     x="60.016884"
     height="2.364975"
     width="4.4340301"
     id="rect400-3-0-2-1-5"
     style="fill:#cccccc;stroke-width:0.22698261" />
  <rect
     transform="matrix(-0.37076927,0.92872501,-0.98091033,-0.1944606,0,0)"
     ry="1.0146294"
     y="-55.715515"
     x="55.164185"
     height="2.364975"
     width="4.4340301"
     id="rect400-3-0-2-1-3"
     style="fill:#cccccc;stroke-width:0.22698261" />
  <rect
     transform="matrix(-0.37076927,0.92872501,-0.98091033,-0.1944606,0,0)"
     ry="1.0146294"
     y="-66.093765"
     x="55.004601"
     height="2.364975"
     width="4.4340301"
     id="rect400-3-0-2-1-5-0"
     style="fill:#cccccc;stroke-width:0.22698261" />
  <rect
     transform="matrix(-0.37076927,0.92872501,-0.98091033,-0.1944606,0,0)"
     ry="1.0146294"
     y="-75.160309"
     x="49.89167"
     height="2.364975"
     width="4.4340301"
     id="rect400-3-0-2-1-3-9"
     style="fill:#cccccc;stroke-width:0.22698261" />
  <rect
     transform="matrix(-0.37076927,0.92872501,-0.98091033,-0.1944606,0,0)"
     ry="1.0146294"
     y="-73.599922"
     x="42.206375"
     height="2.364975"
     width="4.4340301"
     id="rect400-3-0-2-1-56-3"
     style="fill:#cccccc;stroke-width:0.22698261" />
  <rect
     transform="matrix(-0.37076927,0.92872501,-0.98091033,-0.1944606,0,0)"
     ry="1.0146294"
     y="-82.629372"
     x="52.336517"
     height="2.364975"
     width="4.4340301"
     id="rect400-3-0-2-1-2-6"
     style="fill:#cccccc;stroke-width:0.22698261" />
  <rect
     transform="matrix(-0.37076927,0.92872501,-0.98091033,-0.1944606,0,0)"
     ry="1.0146294"
     y="-81.490173"
     x="44.484787"
     height="2.364975"
     width="4.4340301"
     id="rect400-3-0-2-1-9-0"
     style="fill:#cccccc;stroke-width:0.22698261" />
  <rect
     transform="matrix(-0.37076927,0.92872501,-0.98091033,-0.1944606,0,0)"
     ry="1.0146294"
     y="-59.693161"
     x="47.352631"
     height="2.364975"
     width="4.4340301"
     id="rect400-3-0-2-1-2-6-7"
     style="fill:#cccccc;stroke-width:0.22698261" />
  <rect
     transform="matrix(-0.37076927,0.92872501,-0.98091033,-0.1944606,0,0)"
     ry="1.0146294"
     y="-67.381592"
     x="46.829235"
     height="2.364975"
     width="4.4340301"
     id="rect400-3-0-2-1-3-5"
     style="fill:#cccccc;stroke-width:0.22698261" />
</svg>
