<?xml version="1.0" encoding="UTF-8" standalone="no"?>
<svg
   xmlns:dc="http://purl.org/dc/elements/1.1/"
   xmlns:cc="http://creativecommons.org/ns#"
   xmlns:rdf="http://www.w3.org/1999/02/22-rdf-syntax-ns#"
   xmlns:svg="http://www.w3.org/2000/svg"
   xmlns="http://www.w3.org/2000/svg"
   xmlns:sodipodi="http://sodipodi.sourceforge.net/DTD/sodipodi-0.dtd"
   xmlns:inkscape="http://www.inkscape.org/namespaces/inkscape"
   width="300"
   height="300"
   viewBox="0 0 79.374998 79.375002"
   version="1.1"
   id="svg8"
   sodipodi:docname="511n-freezing rain.svg"
   inkscape:version="0.92.3 (2405546, 2018-03-11)">
  <sodipodi:namedview
     pagecolor="#ffffff"
     bordercolor="#666666"
     borderopacity="1"
     objecttolerance="10"
     gridtolerance="10"
     guidetolerance="10"
     inkscape:pageopacity="0"
     inkscape:pageshadow="2"
     inkscape:window-width="1632"
     inkscape:window-height="980"
     id="namedview27"
     showgrid="false"
     inkscape:zoom="0.78666667"
     inkscape:cx="221.43649"
     inkscape:cy="43.089142"
     inkscape:window-x="48"
     inkscape:window-y="0"
     inkscape:window-maximized="1"
     inkscape:current-layer="svg8" />
  <defs
     id="defs2" />
  <metadata
     id="metadata5">
    <rdf:RDF>
      <cc:Work
         rdf:about="">
        <dc:format>image/svg+xml</dc:format>
        <dc:type
           rdf:resource="http://purl.org/dc/dcmitype/StillImage" />
        <dc:title></dc:title>
      </cc:Work>
    </rdf:RDF>
  </metadata>
  <path
     inkscape:connector-curvature="0"
     id="rect12"
     d="m 13.602787,22.78668 c -6.3207413,0 -11.4091224,5.08889 -11.4091224,11.40963 0,5.96608 4.5339507,10.83147 10.3580234,11.359 -3.91e-4,-0.0415 -0.0031,-0.0824 -0.0031,-0.12402 0,-6.26122 4.43625,-11.44633 10.34924,-12.60182 a 18.838146,17.553726 0 0 1 -0.0832,-1.38182 18.838146,17.553726 0 0 1 2.467549,-8.66097 z m 45.570343,2.22105 a 18.838146,17.553726 0 0 1 1.317749,6.43992 18.838146,17.553726 0 0 1 -0.06305,1.13894 h 3.259233 c -0.435615,-3.10657 -2.109253,-5.80515 -4.513937,-7.57886 z"
     style="fill:#cccccc;stroke-width:0.17747766" />
  <path
     inkscape:connector-curvature="0"
     id="path14"
     d="M 28.124382,6.23678 A 16.733612,15.592683 0 0 0 11.390519,21.82963 16.733612,15.592683 0 0 0 18.48621,34.53376 c 1.349226,-0.84267 2.867669,-1.4399 4.494816,-1.73426 a 18.838146,17.553726 0 0 1 -0.07855,-1.29036 18.838146,17.553726 0 0 1 18.838128,-17.55345 18.838146,17.553726 0 0 1 0.827339,0.0388 16.733612,15.592683 0 0 0 -14.443562,-7.75767 z"
     style="fill:#cccccc;stroke-width:0.17747766" />
  <g
     style="fill:#999999"
     transform="matrix(0.91566447,0,0,0.91566447,110.41416,-190.75179)"
     id="g111">
    <rect
       style="fill:#999999;stroke-width:0.19979848"
       id="rect12-6-7"
       width="69.358627"
       height="25.688381"
       x="-104.22694"
       y="244.71248"
       ry="12.844191" />
    <ellipse
       style="fill:#999999;stroke-width:0.19979848"
       id="path14-7-5"
       cx="-75.03495"
       cy="243.63496"
       rx="18.838146"
       ry="17.553726" />
  </g>
  <rect
     transform="matrix(-0.43598643,0.89995324,-0.96456559,-0.26384318,0,0)"
     ry="1.1824861"
     y="-85.208229"
     x="39.701668"
     height="2.3649721"
     width="12.004025"
     id="rect400-3"
     style="fill:#999999;stroke-width:0.22698261" />
  <rect
     transform="matrix(-0.43598643,0.89995324,-0.96456559,-0.26384318,0,0)"
     ry="1.1824861"
     y="-81.292702"
     x="50.406471"
     height="2.3649721"
     width="12.004025"
     id="rect400-3-6"
     style="fill:#999999;stroke-width:0.22698261" />
  <rect
     transform="matrix(-0.43598643,0.89995324,-0.96456559,-0.26384318,0,0)"
     ry="1.1824861"
     y="-72.869362"
     x="46.609634"
     height="2.3649721"
     width="12.004025"
     id="rect400-3-0-2"
     style="fill:#999999;stroke-width:0.22698261" />
  <rect
     style="fill:#999999;stroke-width:0.26458332"
     id="rect66-6"
     width="11.435378"
     height="1.6816735"
     x="-41.040104"
     y="49.104088"
     transform="rotate(-45)"
     inkscape:transform-center-x="-13.453393"
     inkscape:transform-center-y="12.108055" />
  <rect
     style="fill:#999999;stroke-width:0.26458332"
     id="rect66-3-7"
     width="11.435378"
     height="1.6816735"
     x="-55.662613"
     y="-36.163254"
     transform="rotate(-135)"
     inkscape:transform-center-x="-13.453388"
     inkscape:transform-center-y="12.108048" />
  <rect
     style="fill:#999999;stroke-width:0.26458332"
     id="rect66-6-1"
     width="11.435378"
     height="1.6816735"
     x="-34.856148"
     y="68.126846"
     transform="rotate(-45)"
     inkscape:transform-center-x="-13.453393"
     inkscape:transform-center-y="12.108055" />
  <rect
     style="fill:#999999;stroke-width:0.26458332"
     id="rect66-3-7-2"
     width="11.435378"
     height="1.6816735"
     x="-74.685371"
     y="-29.9793"
     transform="rotate(-135)"
     inkscape:transform-center-x="-13.453388"
     inkscape:transform-center-y="12.108048" />
</svg>
