<?xml version="1.0" encoding="UTF-8" standalone="no"?>
<svg
   xmlns:dc="http://purl.org/dc/elements/1.1/"
   xmlns:cc="http://creativecommons.org/ns#"
   xmlns:rdf="http://www.w3.org/1999/02/22-rdf-syntax-ns#"
   xmlns:svg="http://www.w3.org/2000/svg"
   xmlns="http://www.w3.org/2000/svg"
   xmlns:sodipodi="http://sodipodi.sourceforge.net/DTD/sodipodi-0.dtd"
   xmlns:inkscape="http://www.inkscape.org/namespaces/inkscape"
   id="svg8"
   version="1.1"
   viewBox="0 0 79.374998 79.375002"
   height="300"
   width="300"
   sodipodi:docname="budgie-wt-11d-symbolic.svg"
   inkscape:version="0.92.3 (2405546, 2018-03-11)">
  <sodipodi:namedview
     pagecolor="#ffffff"
     bordercolor="#666666"
     borderopacity="1"
     objecttolerance="10"
     gridtolerance="10"
     guidetolerance="10"
     inkscape:pageopacity="0"
     inkscape:pageshadow="2"
     inkscape:window-width="788"
     inkscape:window-height="480"
     id="namedview11"
     showgrid="false"
     inkscape:zoom="1.1125147"
     inkscape:cx="85.92785"
     inkscape:cy="134.67711"
     inkscape:window-x="258"
     inkscape:window-y="100"
     inkscape:window-maximized="0"
     inkscape:current-layer="g882" />
  <defs
     id="defs2" />
  <metadata
     id="metadata5">
    <rdf:RDF>
      <cc:Work
         rdf:about="">
        <dc:format>image/svg+xml</dc:format>
        <dc:type
           rdf:resource="http://purl.org/dc/dcmitype/StillImage" />
        <dc:title></dc:title>
      </cc:Work>
    </rdf:RDF>
  </metadata>
  <path
     inkscape:connector-curvature="0"
     style="fill:#cccccc;stroke-width:0.17747766"
     d="m 13.602787,22.257554 c -6.3207413,0 -11.4091224,5.08889 -11.4091224,11.40963 0,5.96608 4.5339507,10.83147 10.3580234,11.359 -3.91e-4,-0.0415 -0.0031,-0.0824 -0.0031,-0.12402 0,-6.26122 4.43625,-11.44633 10.34924,-12.60182 a 18.838146,17.553726 0 0 1 -0.0832,-1.38182 18.838146,17.553726 0 0 1 2.467549,-8.66097 z m 45.570343,2.22105 a 18.838146,17.553726 0 0 1 1.317749,6.43992 18.838146,17.553726 0 0 1 -0.06305,1.13894 h 3.259233 c -0.435615,-3.10657 -2.109253,-5.80515 -4.513937,-7.57886 z"
     id="rect12" />
  <path
     inkscape:connector-curvature="0"
     style="fill:#cccccc;stroke-width:0.17747766"
     d="M 28.124382,5.7076567 A 16.733612,15.592683 0 0 0 11.390519,21.300504 16.733612,15.592683 0 0 0 18.48621,34.004634 c 1.349226,-0.84267 2.867669,-1.4399 4.494816,-1.73426 a 18.838146,17.553726 0 0 1 -0.07855,-1.29036 18.838146,17.553726 0 0 1 18.838128,-17.55345 18.838146,17.553726 0 0 1 0.827339,0.0388 16.733612,15.592683 0 0 0 -14.443562,-7.7576673 z"
     id="path14" />
  <path
     style="fill:#999999;stroke-width:0.6914584"
     d="M 101.05859 123.94336 C 76.432791 123.94336 56.607422 143.76873 56.607422 168.39453 C 56.607422 193.02033 76.432791 212.8457 101.05859 212.8457 L 146.09766 212.8457 L 161.50195 157.88672 L 197.58203 174.83789 L 186.92969 212.8457 L 252.19141 212.8457 C 276.81721 212.8457 296.64258 193.02033 296.64258 168.39453 C 296.64258 143.76873 276.81721 123.94336 252.19141 123.94336 L 101.05859 123.94336 z "
     transform="scale(0.26458333)"
     id="rect12-6-7" />
  <path
     style="fill:#999999;stroke-width:0.6914584"
     d="M 157.63477 59.464844 A 65.194666 60.749572 0 0 0 92.439453 120.21484 A 65.194666 60.749572 0 0 0 155.06641 180.8457 L 161.5 157.88672 L 191.58008 172.01758 A 65.194666 60.749572 0 0 0 222.82812 120.21484 A 65.194666 60.749572 0 0 0 157.63477 59.464844 z "
     transform="scale(0.26458333)"
     id="path14-7-5" />
  <g
     id="g882"
     transform="matrix(0.99526413,0.09720757,-0.1150386,1.1778279,6.372681,-13.132121)">
    <g
       id="g886"
       transform="matrix(0.99888434,-0.03990404,0.0558861,0.99888434,-2.9217908,2.2923149)">
      <path
         inkscape:connector-curvature="0"
         id="path689-5-3"
         d="m 48.929313,57.902925 -3.878371,0.34475 -2.71382,13.919821 11.048061,-14.152461 z"
         style="fill:#ffff00;stroke:none;stroke-width:0.0329131px;stroke-linecap:butt;stroke-linejoin:miter;stroke-opacity:1" />
      <path
         sodipodi:nodetypes="ccccc"
         inkscape:connector-curvature="0"
         id="rect645-4-6"
         d="m 49.961404,47.015339 -6.670632,-2.074844 -4.02325,14.35445 6.53516,1.55965 z"
         style="fill:#ffff00;stroke-width:0.04409631" />
    </g>
  </g>
</svg>
