<?xml version="1.0" encoding="UTF-8"?>
<!DOCTYPE svg PUBLIC "-//W3C//DTD SVG 1.1//EN" "http://www.w3.org/Graphics/SVG/1.1/DTD/svg11.dtd">
<svg xmlns="http://www.w3.org/2000/svg" xmlns:xlink="http://www.w3.org/1999/xlink" version="1.1" preserveAspectRatio="xMidYMid meet" viewBox="0 0 16 16" width="16" height="16">
   <defs>
      <path d="M10.27 2.42L10.53 2.64L10.77 2.88L11 3.14L11.22 3.41L11.29 3.51L11.64 4.03L11.94 4.58L12.19 5.15L12.39 5.74L12.54 6.35L12.67 7.14L12.73 7.94L12.73 8.74L12.67 9.54L12.54 10.34L12.33 11.13L12.02 11.88L11.62 12.58L11.12 13.23L10.54 13.8L9.92 14.34L9.63 13.44L10.12 12.72L10.48 12.15L10.78 11.54L11.01 10.91L11.18 10.26L11.28 9.59L11.32 9.09L11.34 8.59L11.35 8.09L11.33 7.6L11.3 7.1L11.29 6.97L11.21 6.39L11.07 5.81L10.88 5.26L10.64 4.72L10.35 4.21L9.63 3.06L9.92 2.16L10 2.21L10.27 2.42ZM5.07 9.94L5.32 10.29L5.41 10.71L5.32 11.13L5.07 11.47L4.7 11.7L4.25 11.78L3.8 11.7L3.43 11.47L3.18 11.13L3.09 10.71L3.18 10.29L3.43 9.94L3.8 9.71L4.25 9.63L4.7 9.71L5.07 9.94ZM5.07 5.1L5.32 5.44L5.41 5.86L5.32 6.28L5.07 6.62L4.7 6.86L4.25 6.94L3.8 6.86L3.43 6.62L3.18 6.28L3.09 5.86L3.18 5.44L3.43 5.1L3.8 4.87L4.25 4.78L4.7 4.87L5.07 5.1Z" id="awjhf84wH" />
   </defs>
   <g>
      <g>
         <g>
            <use xlink:href="#awjhf84wH" opacity="1" fill="param(fill) #2a2a2a" fill-opacity="param(fill-opacity) 1" />
         </g>
      </g>
   </g>
</svg>
