<?xml version="1.0" encoding="UTF-8" standalone="no"?>
<!-- Created with Inkscape (http://www.inkscape.org/) -->

<svg
   width="47.50563mm"
   height="41.783607mm"
   viewBox="0 0 47.50563 41.783607"
   version="1.1"
   id="svg5"
   xmlns="http://www.w3.org/2000/svg"
   xmlns:svg="http://www.w3.org/2000/svg">
  <defs
     id="defs2" />
  <g
     id="layer1"
     transform="translate(-83.00964,-14.824909)">
    <path
       id="rect2082"
       style="fill:#808080;stroke-width:0.999999"
       d="M 24.101562 33.240234 C 14.095823 33.240234 6.0410156 41.296995 6.0410156 51.302734 L 6.0410156 114.76758 C 6.0410156 124.77332 14.095823 132.82812 24.101562 132.82812 L 157.92773 132.82812 C 167.93347 132.82812 175.98828 124.77332 175.98828 114.76758 L 175.98828 51.302734 C 175.98828 41.296995 167.93347 33.240234 157.92773 33.240234 L 24.101562 33.240234 z M 91.015625 50.974609 A 32.961695 32.961695 0 0 1 123.97656 83.935547 A 32.961695 32.961695 0 0 1 91.015625 116.89844 A 32.961695 32.961695 0 0 1 58.052734 83.935547 A 32.961695 32.961695 0 0 1 91.015625 50.974609 z "
       transform="matrix(0.26458333,0,0,0.26458333,83.00964,14.824909)" />
    <rect
       style="fill:#808080;stroke-width:0.336181"
       id="rect2312"
       width="13.853873"
       height="9.2525873"
       x="109.06676"
       y="18.945965"
       ry="4.6262937" />
  </g>
</svg>
