<?xml version="1.0" encoding="utf-8"?><svg version="1.1" id="Layer_1" xmlns="http://www.w3.org/2000/svg" xmlns:xlink="http://www.w3.org/1999/xlink" x="0px" y="0px" viewBox="0 0 109.33 122.88" style="enable-background:new 0 0 109.33 122.88" xml:space="preserve"><style type="text/css"><![CDATA[
	.st0{fill:#FFFFFF;}
	.st1{fill-rule:evenodd;clip-rule:evenodd;fill:#262626;}
	.st2{fill-rule:evenodd;clip-rule:evenodd;fill:#FF0000;}
]]></style><g><path class="st1" d="M82.28,105.33h-10.8V90.47H56.14v14.86H44.99l18.64,17.54L82.28,105.33L82.28,105.33z M102.4,33.95H83.61 c-1.98,0-4.73-1.06-6.03-2.36c-1.3-1.3-2.09-3.65-2.09-5.61V6.95l0,0H25.83c-0.16,0-0.29,0.08-0.37,0.16 c-0.14,0.09-0.18,0.21-0.18,0.38v87.73c0,0.12,0.09,0.29,0.16,0.37c0.09,0.13,0.26,0.17,0.38,0.17h12.96 c-1.03,2.16-1.79,4.49-2.23,6.91H23.7c-1.46,0-2.76-0.58-3.73-1.55c-0.96-0.96-1.54-2.26-1.54-3.73V5.32 c0-1.46,0.59-2.76,1.54-3.73c0.97-0.97,2.31-1.55,3.73-1.55h55.31C79.13,0,79.25,0,79.38,0c0.58,0,1.18,0.25,1.59,0.62h0.08 c0.08,0.05,0.13,0.09,0.21,0.16l27.27,27.61c0.46,0.46,0.8,1.09,0.8,1.8c0,0.21-0.04,0.37-0.08,0.6c0,25.22,0,41.39,0,66.61 c0,1.46-0.59,2.77-1.55,3.73c-0.97,0.96-2.27,1.55-3.73,1.55H90c-0.44-2.43-1.19-4.75-2.23-6.91h14.07c0.16,0,0.16-0.09,0.25-0.17 c0.13-0.08,0.3-0.26,0.3-0.37C102.39,71.78,102.4,57.39,102.4,33.95L102.4,33.95z M81.73,25.43V8.12l19.49,19.74H84.16 c-0.67,0-1.26-0.29-1.72-0.71C82.01,26.74,81.73,26.1,81.73,25.43L81.73,25.43L81.73,25.43z"/><polygon class="st2" points="0,38.51 88.91,38.51 88.91,81.22 0,81.22 0,38.51"/><path class="st0" d="M21.2,48.47h11.77c2.56,0,4.48,0.61,5.76,1.82c1.27,1.21,1.91,2.94,1.91,5.19c0,2.3-0.7,4.11-2.09,5.4 c-1.39,1.3-3.52,1.95-6.38,1.95h-3.88v8.44h-7.1V48.47L21.2,48.47z M28.31,58.21h1.74c1.38,0,2.34-0.24,2.9-0.71 c0.55-0.47,0.83-1.08,0.83-1.81c0-0.72-0.24-1.32-0.73-1.82c-0.48-0.5-1.39-0.75-2.72-0.75h-2.03V58.21L28.31,58.21z M42.78,48.47 h7.86l4.63,7.67l4.61-7.67h7.82l-8.89,13.25v9.55h-7.1v-9.55L42.78,48.47L42.78,48.47z"/></g></svg>