<?xml version="1.0" encoding="UTF-8" standalone="no"?>
<svg
   xmlns:dc="http://purl.org/dc/elements/1.1/"
   xmlns:cc="http://creativecommons.org/ns#"
   xmlns:rdf="http://www.w3.org/1999/02/22-rdf-syntax-ns#"
   xmlns:svg="http://www.w3.org/2000/svg"
   xmlns="http://www.w3.org/2000/svg"
   xmlns:sodipodi="http://sodipodi.sourceforge.net/DTD/sodipodi-0.dtd"
   xmlns:inkscape="http://www.inkscape.org/namespaces/inkscape"
   width="300"
   height="300"
   viewBox="0 0 79.374998 79.375002"
   version="1.1"
   id="svg8"
   sodipodi:docname="521n-shower-rain.svg"
   inkscape:version="0.92.3 (2405546, 2018-03-11)">
  <sodipodi:namedview
     pagecolor="#ffffff"
     bordercolor="#666666"
     borderopacity="1"
     objecttolerance="10"
     gridtolerance="10"
     guidetolerance="10"
     inkscape:pageopacity="0"
     inkscape:pageshadow="2"
     inkscape:window-width="1632"
     inkscape:window-height="980"
     id="namedview12"
     showgrid="false"
     inkscape:zoom="0.78666667"
     inkscape:cx="122.66949"
     inkscape:cy="99.152543"
     inkscape:window-x="48"
     inkscape:window-y="0"
     inkscape:window-maximized="1"
     inkscape:current-layer="svg8" />
  <defs
     id="defs2" />
  <metadata
     id="metadata5">
    <rdf:RDF>
      <cc:Work
         rdf:about="">
        <dc:format>image/svg+xml</dc:format>
        <dc:type
           rdf:resource="http://purl.org/dc/dcmitype/StillImage" />
        <dc:title></dc:title>
      </cc:Work>
    </rdf:RDF>
  </metadata>
  <path
     id="rect12"
     d="m 13.602787,24.374222 c -6.3207413,0 -11.4091224,5.08889 -11.4091224,11.40963 0,5.96608 4.5339507,10.83147 10.3580234,11.359 -3.91e-4,-0.0415 -0.0031,-0.0824 -0.0031,-0.12402 0,-6.26122 4.43625,-11.44633 10.34924,-12.60182 a 18.838146,17.553726 0 0 1 -0.0832,-1.38182 18.838146,17.553726 0 0 1 2.467549,-8.66097 z m 45.570343,2.22105 a 18.838146,17.553726 0 0 1 1.317749,6.43992 18.838146,17.553726 0 0 1 -0.06305,1.13894 h 3.259233 c -0.435615,-3.10657 -2.109253,-5.80515 -4.513937,-7.57886 z"
     style="fill:#cccccc;stroke-width:0.17747766"
     inkscape:connector-curvature="0" />
  <path
     id="path14"
     d="M 28.124382,7.8243235 A 16.733612,15.592683 0 0 0 11.390519,23.417172 16.733612,15.592683 0 0 0 18.48621,36.121302 c 1.349226,-0.84267 2.867669,-1.4399 4.494816,-1.73426 a 18.838146,17.553726 0 0 1 -0.07855,-1.29036 18.838146,17.553726 0 0 1 18.838128,-17.55345 18.838146,17.553726 0 0 1 0.827339,0.0388 16.733612,15.592683 0 0 0 -14.443562,-7.7576685 z"
     style="fill:#cccccc;stroke-width:0.17747766"
     inkscape:connector-curvature="0" />
  <rect
     ry="11.760969"
     y="34.910271"
     x="14.977258"
     height="23.521938"
     width="63.509232"
     id="rect12-6-7"
     style="fill:#999999;stroke-width:0.18294837" />
  <ellipse
     ry="16.073324"
     rx="17.249422"
     cy="33.92363"
     cx="41.707321"
     id="path14-7-5"
     style="fill:#999999;stroke-width:0.18294837" />
  <g
     transform="translate(-58.808815,21.705132)"
     id="g862">
    <path
       style="fill:#ffff00;stroke:none;stroke-width:0.51898998"
       d="m 436.82617,-67.847656 a 47.265158,47.265158 0 0 0 -29.6914,43.853515 47.265158,47.265158 0 0 0 0.41992,5.9375 75.162632,70.037899 0 0 1 38.36133,40.539063 47.265158,47.265158 0 0 0 8.48437,0.789062 A 47.265158,47.265158 0 0 0 490.32227,6.6992188 47.265158,47.265158 0 0 1 472.75,10.111328 47.265158,47.265158 0 0 1 425.48438,-37.154297 47.265158,47.265158 0 0 1 436.82617,-67.847656 Z"
       transform="scale(0.26458333)"
       id="path5430"
       inkscape:connector-curvature="0" />
    <path
       d="m 127.82813,-16.696212 -1.9783,-0.476334 -1.51392,1.359639 -0.15831,-2.028668 -1.76091,-1.019671 1.88045,-0.777458 0.42562,-1.989823 1.32049,1.548173 2.02396,-0.210108 -1.06434,1.734278 z"
       id="path5451"
       style="fill:#ffff00;stroke:none;stroke-width:0.13731609"
       inkscape:connector-curvature="0" />
  </g>
  <g
     transform="translate(-136.14344,35.773622)"
     id="g91">
    <rect
       style="fill:#999999;stroke-width:0.22698261"
       id="rect400-3"
       width="12.004025"
       height="2.3649721"
       x="-29.931726"
       y="-194.13748"
       ry="1.1824861"
       transform="matrix(-0.43598643,0.89995324,-0.96456559,-0.26384318,0,0)" />
    <rect
       style="fill:#999999;stroke-width:0.22698261"
       id="rect400-3-6"
       width="12.004025"
       height="2.3649721"
       x="-19.226923"
       y="-190.22195"
       ry="1.1824861"
       transform="matrix(-0.43598643,0.89995324,-0.96456559,-0.26384318,0,0)" />
    <rect
       style="fill:#999999;stroke-width:0.22698261"
       id="rect400-3-0"
       width="12.004025"
       height="2.3649721"
       x="-22.064585"
       y="-184.1577"
       ry="1.1824861"
       transform="matrix(-0.43598643,0.89995324,-0.96456559,-0.26384318,0,0)" />
    <rect
       style="fill:#999999;stroke-width:0.22698261"
       id="rect400-3-0-2"
       width="12.004025"
       height="2.3649721"
       x="-25.622385"
       y="-173.10191"
       ry="1.1824861"
       transform="matrix(-0.43598643,0.89995324,-0.96456559,-0.26384318,0,0)" />
    <rect
       style="fill:#999999;stroke-width:0.22698261"
       id="rect400-3-6-6-0"
       width="12.004025"
       height="2.3649721"
       x="-14.357676"
       y="-169.55507"
       ry="1.1824861"
       transform="matrix(-0.43598643,0.89995324,-0.96456559,-0.26384318,0,0)" />
    <rect
       style="fill:#999999;stroke-width:0.22698261"
       id="rect400-3-0-2-1"
       width="12.004025"
       height="2.3649721"
       x="-19.31283"
       y="-162.41811"
       ry="1.1824861"
       transform="matrix(-0.43598643,0.89995324,-0.96456559,-0.26384318,0,0)" />
    <rect
       style="fill:#999999;stroke-width:0.22698261"
       id="rect400-3-0-2-7"
       width="12.004025"
       height="2.3649721"
       x="-27.815851"
       y="-201.20386"
       ry="1.1824861"
       transform="matrix(-0.43598643,0.89995324,-0.96456559,-0.26384318,0,0)" />
  </g>
</svg>
