<svg xmlns="http://www.w3.org/2000/svg" shape-rendering="geometricPrecision" text-rendering="geometricPrecision" image-rendering="optimizeQuality" fill-rule="evenodd" clip-rule="evenodd" viewBox="0 0 512 445.38"><path d="M6.95 0h498.1c3.82 0 6.95 3.16 6.95 6.92v96.5l-.02.46v341.5H0V88.11h.01L0 6.92C0 3.11 3.12 0 6.95 0zm11.57 315.78h104.12V219.6H18.52v96.18zm122.64 0h105.8V219.6h-105.8v96.18zm124.32 0h105.35V219.6H265.48v96.18zm123.87 0h104.12V219.6H389.35v96.18zm104.12 18.52H389.35v92.56h104.12V334.3zm-122.64 0H265.48v92.56h105.35V334.3zm-123.87 0h-105.8v92.56h105.8V334.3zm-124.32 0H18.52v92.56h104.12V334.3zM18.52 201.09h104.12v-94.46H18.52v94.46zm122.64 0h105.8v-94.46h-105.8v94.46zm124.32 0h105.35v-94.46H265.48v94.46zm123.87 0h104.12v-94.46H389.35v94.46z"/></svg>